# xmcd
#
# Track frame offsets:
#	150
#	31017
#	49305
#	69314
#	89857
#	116449
#	132278
#	159114
#	181753
#	211935
#	248896
#
# Disc length: 3585 seconds
#
# Revision: 0
# Processed by: cddbd v1.5.2PL0 Copyright (c) Steve Scherf et al.
# Submitted via: dBpowerAMP V4.0
#
DISCID=8d0dff0b
DTITLE=Various Artist - December, 12th, 1990, The Blind Pig, Ann Arbor, MI, disc 03
DYEAR=1900
DGENRE=Blues
TTITLE0=01 Been So Long - 
TTITLE1=02 Ice Age - 
TTITLE2=03 True Religion - 
TTITLE3=04 Keep Your Lamps Trimmed And Burning - 
TTITLE4=05 Eve Of Destruction - 
TTITLE5=06 Rumble - 
TTITLE6=07 Uncle Sam Blues - Hot Tuna
TTITLE7=08 From Four Till Late - 
TTITLE8=09 Ken Takes A Lude - 
TTITLE9=0 Feel So Good - 
TTITLE10=11 Love Gone Flat - 
EXTD=
EXTT0=
EXTT1=
EXTT2=
EXTT3=
EXTT4=
EXTT5=
EXTT6=
EXTT7=
EXTT8=
EXTT9=
EXTT10=
PLAYORDER=
